<?xml version="1.0" encoding="UTF-8" standalone="no"?>
<svg
   width="64"
   height="64"
   viewBox="0 0 16.933 16.933"
   version="1.1"
   id="svg3"
   sodipodi:docname="keep.svg"
   xml:space="preserve"
   inkscape:version="1.3.2 (091e20ef0f, 2023-11-25, custom)"
   xmlns:inkscape="http://www.inkscape.org/namespaces/inkscape"
   xmlns:sodipodi="http://sodipodi.sourceforge.net/DTD/sodipodi-0.dtd"
   xmlns="http://www.w3.org/2000/svg"
   xmlns:svg="http://www.w3.org/2000/svg"><defs
     id="defs3" /><sodipodi:namedview
     id="namedview3"
     pagecolor="#ffffff"
     bordercolor="#000000"
     borderopacity="0.25"
     inkscape:showpageshadow="2"
     inkscape:pageopacity="0.0"
     inkscape:pagecheckerboard="0"
     inkscape:deskcolor="#d1d1d1"
     inkscape:zoom="6.921875"
     inkscape:cx="-1.227991"
     inkscape:cy="32"
     inkscape:window-width="1896"
     inkscape:window-height="1022"
     inkscape:window-x="0"
     inkscape:window-y="0"
     inkscape:window-maximized="1"
     inkscape:current-layer="svg3" /><g
     transform="translate(0 -280.07)"
     id="g3"><circle
       cx="8.466"
       cy="288.53"
       r="7.144"
       fill="#32a3d7"
       style="paint-order:markers stroke fill;fill:#fbbc04;fill-opacity:1"
       id="circle1" /><path
       d="M12.583 284.417a5.82 5.82 0 0 0-8.232 0 5.82 5.82 0 0 0 0 8.232 5.82 5.82 0 0 0 .154.144h1.304a5.027 5.027 0 0 0 5.318 0h1.297a5.82 5.82 0 0 0 .159-.144 5.82 5.82 0 0 0 0-8.232z"
       opacity=".15"
       paint-order="markers stroke fill"
       id="path1" /><path
       d="M 9.898756,292.01484 H 7.0342433 V 290.9918 H 9.898756 Z M 9.883413,289.96876 H 7.049589 c -0.7468194,-0.4706 -1.2429939,-1.30233 -1.2429939,-2.25069 0,-1.46909 1.1908188,-2.65991 2.6599046,-2.65991 1.4690858,0 2.6599053,1.19082 2.6599053,2.65991 0,0.94836 -0.496175,1.78009 -1.2429943,2.25069 z"
       fill="#ffffff"
       id="path3"
       style="stroke-width:0.204608" /></g></svg>
