<?xml version="1.0" encoding="UTF-8" standalone="no"?>
<svg
   width="64"
   height="64"
   version="1"
   id="svg4"
   sodipodi:docname="system-reboot.svg"
   inkscape:version="1.3.2 (091e20ef0f, 2023-11-25, custom)"
   xmlns:inkscape="http://www.inkscape.org/namespaces/inkscape"
   xmlns:sodipodi="http://sodipodi.sourceforge.net/DTD/sodipodi-0.dtd"
   xmlns="http://www.w3.org/2000/svg"
   xmlns:svg="http://www.w3.org/2000/svg">
  <defs
     id="defs4" />
  <sodipodi:namedview
     id="namedview4"
     pagecolor="#ffffff"
     bordercolor="#000000"
     borderopacity="0.25"
     inkscape:showpageshadow="2"
     inkscape:pageopacity="0.0"
     inkscape:pagecheckerboard="0"
     inkscape:deskcolor="#d1d1d1"
     inkscape:zoom="5.015625"
     inkscape:cx="31.900312"
     inkscape:cy="32"
     inkscape:window-width="956"
     inkscape:window-height="1052"
     inkscape:window-x="0"
     inkscape:window-y="0"
     inkscape:window-maximized="1"
     inkscape:current-layer="svg4" />
  <circle
     style="opacity:0.2"
     cx="32"
     cy="33"
     r="29"
     id="circle1" />
  <circle
     style="fill:#d79921;fill-opacity:1"
     cx="32"
     cy="32"
     r="29"
     id="circle2" />
  <path
     style="opacity:0.2"
     d="m 31.941406,13.999622 c -3.922124,-0.05546 -3.922124,6.004683 0,5.949219 3.819847,0 7.542647,1.669872 10.023438,4.574219 1.812554,2.122018 2.860104,4.74624 3.066406,7.476562 H 39 l 4.5,6 4.5,6 4.5,-6 4.5,-6 H 50.820312 C 50.604716,27.897544 49.088959,23.934757 46.375,20.757434 42.794475,16.56559 37.454588,13.999622 31.941406,13.999622 Z m -15.941406,8 -4.5,6 -4.5,6 h 6.179688 c 0.215595,4.102078 1.731353,8.064866 4.445312,11.242188 3.580525,4.191844 8.920412,6.757812 14.433594,6.757812 3.922124,0.05546 3.922124,-6.004683 0,-5.949219 -3.819847,0 -7.542647,-1.669873 -10.023438,-4.574219 -1.812554,-2.122018 -2.860104,-4.74624 -3.066406,-7.476562 H 25 l -4.5,-6 z"
     id="path2" />
  <path
     style="fill:#fbf1c7;fill-opacity:1"
     d="M 31.941406 13 C 28.019282 12.94454 28.019282 19.004683 31.941406 18.949219 C 35.761253 18.949219 39.484053 20.619091 41.964844 23.523438 C 43.777398 25.645456 44.824948 28.269678 45.03125 31 L 39 31 L 43.5 37 L 48 43 L 52.5 37 L 57 31 L 50.820312 31 C 50.604716 26.897922 49.088959 22.935135 46.375 19.757812 C 42.794475 15.565968 37.454588 13 31.941406 13 z M 16 21 L 11.5 27 L 7 33 L 13.179688 33 C 13.395283 37.102078 14.911041 41.064866 17.625 44.242188 C 21.205525 48.434032 26.545412 51 32.058594 51 C 35.980718 51.05546 35.980718 44.995317 32.058594 45.050781 C 28.238747 45.050781 24.515947 43.380908 22.035156 40.476562 C 20.222602 38.354544 19.175052 35.730322 18.96875 33 L 25 33 L 20.5 27 L 16 21 z"
     id="path3" />
  <path
     style="opacity:0.2;fill:#ffffff"
     d="M 32 3 A 29 29 0 0 0 3 32 A 29 29 0 0 0 3.0175781 32.488281 A 29 29 0 0 1 32 4 A 29 29 0 0 1 60.974609 32.494141 A 29 29 0 0 0 61 32 A 29 29 0 0 0 32 3 z"
     id="path4" />
</svg>
