<?xml version="1.0" encoding="UTF-8" standalone="no"?>
<svg
   width="64"
   height="64"
   version="1"
   id="svg4"
   sodipodi:docname="system-lock.svg"
   inkscape:version="1.3.2 (091e20ef0f, 2023-11-25, custom)"
   xmlns:inkscape="http://www.inkscape.org/namespaces/inkscape"
   xmlns:sodipodi="http://sodipodi.sourceforge.net/DTD/sodipodi-0.dtd"
   xmlns="http://www.w3.org/2000/svg"
   xmlns:svg="http://www.w3.org/2000/svg">
  <defs
     id="defs4" />
  <sodipodi:namedview
     id="namedview4"
     pagecolor="#ffffff"
     bordercolor="#000000"
     borderopacity="0.25"
     inkscape:showpageshadow="2"
     inkscape:pageopacity="0.0"
     inkscape:pagecheckerboard="0"
     inkscape:deskcolor="#d1d1d1"
     inkscape:zoom="7.375"
     inkscape:cx="13.966102"
     inkscape:cy="29.966102"
     inkscape:window-width="1916"
     inkscape:window-height="1052"
     inkscape:window-x="0"
     inkscape:window-y="0"
     inkscape:window-maximized="1"
     inkscape:current-layer="svg4" />
  <circle
     style="opacity:0.2"
     cx="32"
     cy="33"
     r="29"
     id="circle1" />
  <circle
     style="fill:#79a7e4;fill-opacity:1"
     cx="32"
     cy="32"
     r="29"
     id="circle2" />
  <path
     style="opacity:0.2;fill:#ffffff"
     d="M 32 3 A 29 29 0 0 0 3 32 A 29 29 0 0 0 3.0175781 32.488281 A 29 29 0 0 1 32 4 A 29 29 0 0 1 60.974609 32.494141 A 29 29 0 0 0 61 32 A 29 29 0 0 0 32 3 z"
     id="path4" />
  <g
     id="g4"
     transform="matrix(1.0936831,0,0,1.0936831,1.3769817,4.8825097)">
    <path
       style="opacity:0.2"
       d="m 28,5.9998 c -5.6408,0 -10,4.5874 -10,10.2858 v 3.714 h -2.2182 c -0.9864,0 -1.7818,0.946 -1.7818,1.942 v 18.258 c 0,0.996 0.7954,1.8 1.7818,1.8 h 24.436 c 0.986,0 1.782,-0.804 1.782,-1.8 V 21.9424 c 0,-0.996 -0.798,-2.006 -1.782,-1.942 h -2.218 v -3.714 c 0,-5.698 -4.36,-10.286 -10,-10.286 z m 0,4 c 3.5254,0 6,2.7242 6,6.2858 v 3.714 H 22 v -3.714 c 0,-3.562 2.474,-6.286 6,-6.286 z"
       id="path2-3" />
    <path
       style="fill:#ffffff"
       d="M 28,5 C 22.3592,5 18,9.5874 18,15.2858 v 3.714 h -2.2182 c -0.9864,0 -1.7818,0.946 -1.7818,1.942 v 18.258 c 0,0.996 0.7954,1.8 1.7818,1.8 h 24.436 c 0.986,0 1.782,-0.804 1.782,-1.8 V 20.9426 c 0,-0.996 -0.798,-2.006 -1.782,-1.942 h -2.218 v -3.714 c 0,-5.6986 -4.36,-10.286 -10,-10.286 z m 0,4 c 3.5254,0 6,2.7242 6,6.2858 v 3.714 H 22 v -3.714 c 0,-3.562 2.474,-6.286 6,-6.286 z"
       id="path3-6" />
  </g>
</svg>
