<?xml version="1.0" encoding="UTF-8" standalone="no"?>
<svg
   width="64"
   height="64"
   version="1"
   id="svg4"
   sodipodi:docname="system-log-out.svg"
   inkscape:version="1.3.2 (091e20ef0f, 2023-11-25, custom)"
   xmlns:inkscape="http://www.inkscape.org/namespaces/inkscape"
   xmlns:sodipodi="http://sodipodi.sourceforge.net/DTD/sodipodi-0.dtd"
   xmlns="http://www.w3.org/2000/svg"
   xmlns:svg="http://www.w3.org/2000/svg">
  <defs
     id="defs4" />
  <sodipodi:namedview
     id="namedview4"
     pagecolor="#ffffff"
     bordercolor="#000000"
     borderopacity="0.25"
     inkscape:showpageshadow="2"
     inkscape:pageopacity="0.0"
     inkscape:pagecheckerboard="0"
     inkscape:deskcolor="#d1d1d1"
     inkscape:zoom="6.9375"
     inkscape:cx="32"
     inkscape:cy="31.927928"
     inkscape:window-width="956"
     inkscape:window-height="1052"
     inkscape:window-x="0"
     inkscape:window-y="0"
     inkscape:window-maximized="1"
     inkscape:current-layer="svg4" />
  <circle
     style="opacity:0.2"
     cx="32"
     cy="33"
     r="29"
     id="circle1" />
  <circle
     style="fill:#689d6a;fill-opacity:1"
     cx="32"
     cy="32"
     r="29"
     id="circle2" />
  <path
     style="opacity:0.2"
     d="m 31.078124,12.019531 c -0.617408,0.027 -1.231522,0.0832 -1.843748,0.164062 -4.89781,0.646875 -9.57223,3.006873 -13.035157,6.957032 C 9.2733614,27.040944 9.2637098,38.915718 16.175781,46.828124 23.087854,54.74053 34.847534,56.316512 43.59375,50.5 a 3.0006612,3.003522 0 1 0 -3.320312,-5.003906 c -6.280246,4.176562 -14.6188,3.064336 -19.582032,-2.617188 -4.963231,-5.681524 -4.953678,-14.104496 0.0196,-19.777344 4.973132,-5.672843 13.312984,-6.773464 19.585938,-2.585936 A 2.9995766,3.0024362 0 1 0 43.625,15.519531 c -3.822036,-2.551405 -8.225016,-3.688995 -12.546876,-3.5 z M 45,22.5 V 30 H 34 c -1.656854,0 -3,1.34311 -3,3 0,1.65689 1.343146,3 3,3 h 11 v 7.5 L 58,33 Z"
     id="path2" />
  <path
     style="fill:#fbf1c7;fill-opacity:1"
     d="m 31.078124,11.019531 c -0.617408,0.027 -1.231522,0.0832 -1.843748,0.164062 -4.89781,0.646875 -9.57223,3.006873 -13.035157,6.957032 C 9.2733614,26.040944 9.2637098,37.915718 16.175781,45.828124 23.087854,53.74053 34.847534,55.316512 43.59375,49.5 a 3.0006612,3.003522 0 1 0 -3.320312,-5.003906 c -6.280246,4.176562 -14.6188,3.064336 -19.582032,-2.617188 -4.963231,-5.681524 -4.953678,-14.104496 0.0196,-19.777344 4.973132,-5.672843 13.312984,-6.773464 19.585938,-2.585937 A 2.9995766,3.0024362 0 1 0 43.625,14.519531 c -3.822036,-2.551405 -8.225016,-3.688995 -12.546876,-3.5 z M 45,21.5 V 29 H 34 c -1.656854,0 -3,1.34311 -3,3 0,1.65689 1.343146,3 3,3 h 11 v 7.5 L 58,32 Z"
     id="path3" />
  <path
     style="opacity:0.2;fill:#ffffff"
     d="M 32 3 A 29 29 0 0 0 3 32 A 29 29 0 0 0 3.0175781 32.488281 A 29 29 0 0 1 32 4 A 29 29 0 0 1 60.974609 32.494141 A 29 29 0 0 0 61 32 A 29 29 0 0 0 32 3 z"
     id="path4" />
</svg>
